 <svg width="100%" height="100%" viewBox="0 0 256 27" xmlns="http://www.w3.org/2000/svg" xmlns:xlink="http://www.w3.org/1999/xlink" aria-label="Icon">
                <g transform="matrix(1.04789 0 0 1.04789 -23.9967 92.0049)" id="Art">
                    <g id="svg_1">
                        <path id="svg_2" fill-rule="nonzero" fill="currentColor"
                              d="m32.6,-87.29126l2.4,0l6.9,16c0.6,1.4 1.1,2.6 1.6,3.6c0.5,1 1,2.1 1.6,3.3l-5.1,0c-0.3,-1.1 -0.7,-2.1 -1,-2.9c-0.3,-0.8 -0.7,-1.8 -1.1,-2.9l-9.1,0c-0.5,1.3 -0.9,2.5 -1.2,3.4c-0.3,0.9 -0.5,1.7 -0.7,2.4l-4,0c0.4,-0.9 0.8,-1.7 1.1,-2.3c0.3,-0.6 0.6,-1.3 0.8,-1.9c0.3,-0.6 0.6,-1.3 0.9,-2l6.9,-16.7zm0.7,5.6l-3.6,8.9l7.2,0l-3.6,-8.9z" />
                        <path id="svg_3" fill-rule="nonzero" fill="currentColor"
                              d="m46.5,-81.49126c0,-2 0.7,-3.5 2.1,-4.6c1.4,-1.1 3.3,-1.6 5.7,-1.6c1,0 1.9,0.1 2.9,0.3c1,0.2 1.9,0.4 2.7,0.8l0.4,3.7c-2,-1.4 -4,-2.1 -5.9,-2.1c-1.3,0 -2.3,0.3 -3,0.8c-0.7,0.5 -1,1.2 -1,2.1c0,0.7 0.2,1.3 0.7,1.8c0.4,0.5 1.2,1.1 2.3,1.6l3.3,1.6c1.8,0.9 3.2,1.8 4.1,2.9c0.9,1.1 1.3,2.3 1.3,3.9c0,2.1 -0.8,3.7 -2.3,4.8c-1.5,1.1 -3.6,1.7 -6.3,1.7c-1.3,0 -2.5,-0.1 -3.7,-0.4c-1.2,-0.3 -2.2,-0.7 -3.1,-1.2l-0.4,-3.9c2.2,1.8 4.6,2.7 7.2,2.7c1.5,0 2.6,-0.3 3.4,-0.9c0.8,-0.6 1.2,-1.3 1.2,-2.3c0,-0.7 -0.2,-1.3 -0.7,-1.9c-0.5,-0.6 -1.4,-1.1 -2.7,-1.8l-3.5,-1.6c-3.1,-1.5 -4.7,-3.7 -4.7,-6.4z" />
                        <path id="svg_4" fill-rule="nonzero" fill="currentColor"
                              d="m70.4,-84.69126c-1.3,0 -2.5,0.1 -3.6,0.2c-1.2,0.1 -2.4,0.2 -3.6,0.4l0.3,-3.2l18.1,0l0.2,3.2c-1.3,-0.2 -2.5,-0.3 -3.6,-0.4c-1.2,-0.1 -2.4,-0.2 -3.6,-0.2l0,17.1c0,0.9 0.1,2 0.1,3.2l-4.3,0c0,-1.2 0.1,-2.3 0.1,-3.2l0,-17.1l-0.1,0z" />
                        <path id="svg_5" fill-rule="nonzero" fill="currentColor"
                              d="m83.4,-70.89126c-0.6,-1.5 -0.9,-3.1 -0.9,-4.9c0,-1.8 0.3,-3.5 0.9,-4.9c0.6,-1.5 1.4,-2.7 2.5,-3.7c1.1,-1 2.3,-1.8 3.7,-2.4c1.4,-0.6 2.9,-0.8 4.5,-0.8c1.6,0 3.1,0.3 4.5,0.8c1.4,0.6 2.6,1.3 3.7,2.4c1.1,1 1.9,2.3 2.5,3.7c0.6,1.5 0.9,3.1 0.9,4.9c0,1.8 -0.3,3.5 -0.9,4.9c-0.6,1.5 -1.5,2.7 -2.5,3.8c-1.1,1 -2.3,1.8 -3.7,2.4c-1.4,0.6 -2.9,0.8 -4.5,0.8c-1.6,0 -3.1,-0.3 -4.5,-0.8c-1.4,-0.6 -2.7,-1.3 -3.7,-2.4c-1,-1.1 -1.9,-2.3 -2.5,-3.8zm18,-4.9c0,-1.9 -0.3,-3.6 -0.9,-5c-0.6,-1.4 -1.5,-2.4 -2.5,-3.2c-1.1,-0.7 -2.4,-1.1 -3.8,-1.1c-1.4,0 -2.7,0.4 -3.8,1.1c-1.1,0.7 -1.9,1.8 -2.5,3.2c-0.6,1.4 -0.9,3 -0.9,5c0,1.9 0.3,3.6 0.9,5c0.6,1.4 1.5,2.4 2.5,3.2c1.1,0.7 2.3,1.1 3.8,1.1c1.5,0 2.7,-0.4 3.8,-1.1c1.1,-0.7 1.9,-1.8 2.5,-3.2c0.6,-1.4 0.9,-3.1 0.9,-5z" />
                        <path id="svg_6" fill-rule="nonzero" fill="currentColor"
                              d="m126.6,-71.29126l0,-12.7c0,-1 -0.1,-2 -0.1,-3.2l3.3,0c0,1.2 -0.1,2.2 -0.1,3.2l0,16.5c0,0.9 0.1,2 0.1,3.2l-2.3,0l-14.3,-15.9l0,13.6c0,0.7 0,1.4 0.1,2.2l-3.3,0c0,-0.8 0.1,-1.5 0.1,-2.2l0,-17.4c0,-1 -0.1,-2 -0.1,-3.2l2.2,0l14.4,15.9z" />
                        <path id="svg_7" fill-rule="nonzero" fill="currentColor"
                              d="m157.5,-70.99126l8,-16.2l2.3,0l1.5,13.8c0.2,1.5 0.4,3 0.5,4.5c0.2,1.5 0.4,3 0.6,4.6l-4.4,0c0,-1.1 -0.1,-2.1 -0.2,-3c-0.1,-0.9 -0.1,-1.9 -0.2,-2.8c-0.1,-1 -0.2,-2 -0.3,-3.2l-0.5,-5.9l-6.9,14l-1.9,0l-7.1,-13.9l-0.5,6c-0.1,1.6 -0.3,3.2 -0.4,4.6c-0.1,1.4 -0.2,2.8 -0.2,4.3l-3.5,0c0.2,-1.4 0.4,-2.8 0.5,-4.2c0.2,-1.4 0.3,-2.9 0.5,-4.4l1.4,-14.2l2.3,0l8.5,16z" />
                        <path id="svg_8" fill-rule="nonzero" fill="currentColor"
                              d="m182.8,-87.29126l2.4,0l6.9,16c0.6,1.4 1.1,2.6 1.6,3.6c0.5,1 1,2.1 1.6,3.3l-5.1,0c-0.3,-1.1 -0.7,-2.1 -1,-2.9c-0.3,-0.8 -0.7,-1.8 -1.1,-2.9l-9.1,0c-0.5,1.3 -0.9,2.5 -1.2,3.4c-0.3,0.9 -0.5,1.7 -0.7,2.4l-4,0c0.4,-0.9 0.8,-1.7 1.1,-2.3c0.3,-0.6 0.6,-1.3 0.8,-1.9c0.3,-0.6 0.6,-1.3 0.9,-2l6.9,-16.7zm0.6,5.6l-3.6,8.9l7.2,0l-3.6,-8.9z" />
                        <path id="svg_9" fill-rule="nonzero" fill="currentColor"
                              d="m198,-64.39126c0,-1.2 0.1,-2.3 0.1,-3.2l0,-16.3c0,-1.1 -0.1,-2.1 -0.1,-3.2c0.9,-0.1 1.7,-0.2 2.6,-0.2l2.6,0c2,0 3.7,0.2 5.2,0.7c1.5,0.5 2.7,1.2 3.5,2.1c0.8,0.9 1.3,2.1 1.3,3.5c0,1.4 -0.4,2.7 -1.3,3.8c-0.9,1.1 -2.2,1.9 -3.9,2.4l8.1,10.3l-5.3,0c-0.7,-1.1 -1.3,-2.1 -2,-3c-0.6,-0.9 -1.3,-1.9 -2.1,-2.9l-2.8,-3.8l-1.8,0l0,6.6c0,0.9 0.1,2 0.1,3.2l-4.2,0zm4.1,-20.3l0,7.9c0.7,0.1 1.3,0.2 2,0.2c1.6,0 2.9,-0.4 3.7,-1.1c0.8,-0.8 1.2,-1.8 1.2,-3c0,-1.3 -0.4,-2.3 -1.3,-3c-0.9,-0.7 -2.1,-1 -3.8,-1c-0.6,-0.1 -1.2,-0.1 -1.8,0z" />
                        <path id="svg_10" fill-rule="nonzero" fill="currentColor"
                              d="m222.9,-84.69126c-1.3,0 -2.5,0.1 -3.6,0.2c-1.2,0.1 -2.4,0.2 -3.6,0.4l0.3,-3.2l18,0l0.2,3.2c-1.3,-0.2 -2.5,-0.3 -3.6,-0.4c-1.2,-0.1 -2.4,-0.2 -3.6,-0.2l0,17.1c0,0.9 0.1,2 0.1,3.2l-4.3,0c0,-1.2 0.1,-2.3 0.1,-3.2l0,-17.1z" />
                        <path id="svg_11" fill-rule="nonzero" fill="currentColor"
                              d="m237.8,-67.59126l0,-16.5c0,-1 -0.1,-2 -0.1,-3.2l4.3,0c0,1.2 -0.1,2.2 -0.1,3.2l0,16.5c0,0.9 0.1,2 0.1,3.2l-4.3,0c0,-1.2 0.1,-2.3 0.1,-3.2z" />
                        <path id="svg_12" fill-rule="nonzero" fill="currentColor"
                              d="m264,-71.29126l0,-12.7c0,-1 -0.1,-2 -0.1,-3.2l3.3,0c0,1.2 -0.1,2.2 -0.1,3.2l0,16.5c0,0.9 0.1,2 0.1,3.2l-2.3,0l-14.3,-15.9l0,13.6c0,0.7 0,1.4 0.1,2.2l-3.3,0c0,-0.8 0.1,-1.5 0.1,-2.2l0,-17.4c0,-1 -0.1,-2 -0.1,-3.2l2.2,0l14.4,15.9z" />
                    </g>
                </g>
            </svg>