<?xml version="1.0" standalone="no"?>
<!DOCTYPE svg PUBLIC "-//W3C//DTD SVG 20010904//EN"
 "http://www.w3.org/TR/2001/REC-SVG-20010904/DTD/svg10.dtd">
<svg version="1.0" xmlns="http://www.w3.org/2000/svg"
 width="600.000000pt" height="300.000000pt" viewBox="0 0 600.000000 300.000000"
 preserveAspectRatio="xMidYMid meet">

<g transform="translate(0.000000,300.000000) scale(0.100000,-0.100000)"
fill="#000000" stroke="none">
<path d="M2000 2375 c-52 -8 -126 -24 -165 -36 -73 -22 -165 -66 -165 -80 0
-20 23 -15 96 21 116 57 220 83 336 84 53 1 99 -2 103 -6 4 -4 -197 -297 -446
-652 l-452 -646 -141 0 c-267 0 -491 -55 -555 -136 -45 -58 -11 -59 74 -4 72
47 143 74 239 91 96 16 358 6 536 -22 176 -27 445 -32 555 -10 82 16 219 63
289 98 65 33 147 116 182 184 21 41 28 73 32 132 4 72 2 82 -28 143 -32 66
-87 118 -137 130 -34 9 -28 24 10 24 53 0 196 38 262 70 131 63 202 158 213
285 12 151 -99 261 -320 316 -110 27 -380 35 -518 14z m398 -41 c12 -4 22 -10
22 -14 0 -5 -164 -242 -363 -528 -200 -285 -401 -574 -447 -640 -48 -70 -90
-122 -99 -122 -25 0 -61 12 -61 19 0 8 850 1234 879 1269 20 23 31 26 69 16z
m187 -63 c84 -38 132 -123 122 -217 -17 -160 -138 -285 -315 -323 -75 -16
-256 -15 -249 2 3 6 63 94 135 194 72 101 156 223 187 273 31 49 62 90 68 90
7 0 30 -9 52 -19z m-326 -606 c44 -22 100 -94 116 -149 19 -63 19 -97 0 -171
-41 -157 -192 -287 -382 -329 -79 -18 -298 -22 -308 -6 -3 5 75 134 173 287
98 153 195 304 216 337 l37 59 60 -7 c33 -3 72 -12 88 -21z"/>
<path d="M5302 1885 c-56 -47 -83 -147 -43 -160 59 -18 163 96 146 162 -8 33
-63 32 -103 -2z"/>
<path d="M4633 1880 c-34 -10 -66 -21 -71 -24 -6 -3 -47 -58 -93 -121 l-83
-115 -52 0 c-37 0 -54 -4 -58 -15 -4 -12 3 -15 34 -15 22 0 40 -3 40 -6 0 -3
-59 -91 -131 -195 -140 -204 -186 -250 -303 -309 -76 -38 -129 -40 -152 -5
-16 25 -15 51 7 107 8 21 20 29 48 34 111 20 291 157 345 261 39 77 10 123
-80 123 -99 0 -243 -101 -341 -237 -47 -66 -92 -163 -93 -198 0 -21 -98 -94
-153 -115 -47 -17 -95 -13 -102 9 -12 40 26 94 158 224 136 135 177 194 177
254 0 48 -31 68 -104 68 -51 0 -76 -7 -149 -42 -48 -23 -87 -39 -87 -35 1 4 7
18 15 32 26 46 20 51 -47 48 l-62 -3 -112 -155 c-117 -162 -156 -202 -289
-303 -94 -71 -147 -96 -197 -97 -64 0 -85 49 -54 124 11 28 22 35 62 45 116
29 279 155 328 254 31 61 32 81 6 107 -32 32 -110 27 -190 -11 -87 -41 -231
-186 -278 -279 -72 -144 -64 -232 24 -271 80 -36 183 -3 318 101 l69 53 -46
-64 c-78 -105 -77 -99 -3 -99 l65 0 115 158 c206 281 262 338 373 381 76 29
115 34 137 18 27 -20 14 -39 -137 -196 -155 -162 -187 -208 -187 -269 0 -24 4
-52 10 -62 14 -25 74 -43 118 -35 39 7 125 51 179 91 39 29 43 30 43 3 0 -12
15 -36 33 -54 67 -67 170 -53 313 44 l74 51 0 -43 c0 -89 59 -117 154 -74 63
29 134 76 188 125 l37 33 -9 -33 c-16 -53 -12 -85 13 -114 20 -22 32 -27 69
-27 53 1 158 51 235 111 l51 41 4 -51 c8 -75 40 -103 118 -102 79 2 165 44
246 121 67 65 144 159 144 176 0 7 -12 -4 -27 -23 -92 -118 -194 -200 -276
-221 -40 -10 -51 -9 -72 5 -51 34 -38 62 166 353 82 117 149 215 149 218 0 3
-30 5 -67 5 l-68 0 -149 -211 c-164 -231 -220 -290 -330 -345 -78 -39 -102
-42 -111 -15 -10 32 16 77 177 301 l154 215 56 3 c38 2 58 8 62 17 4 12 -4 15
-40 15 -33 0 -45 4 -41 13 2 7 40 64 84 127 107 155 101 144 67 136 -131 -32
-124 -27 -218 -156 l-87 -120 -48 0 c-30 0 -53 -6 -61 -14 -10 -13 -4 -15 34
-18 l46 -3 -104 -151 c-123 -176 -245 -300 -348 -354 -73 -38 -98 -36 -98 7 1
39 16 64 184 296 l149 207 52 0 c47 0 75 12 75 32 0 4 -20 8 -45 8 -25 0 -45
2 -45 5 0 2 40 63 90 135 49 71 84 130 77 129 -7 0 -40 -9 -74 -19z m-1623
-347 c0 -97 -197 -283 -300 -283 -16 0 -30 5 -30 11 0 18 82 132 139 193 73
77 127 116 163 116 26 0 28 -3 28 -37z m1127 21 c3 -8 0 -34 -7 -57 -16 -53
-157 -198 -221 -227 -42 -18 -109 -27 -109 -14 0 14 92 143 142 198 84 95 178
143 195 100z"/>
<path d="M2248 768 c-19 -6 -30 -20 -37 -44 -17 -61 11 -114 61 -114 28 0 68
30 68 51 0 7 -11 0 -25 -15 -29 -31 -48 -33 -75 -6 -26 26 -26 81 -2 103 23
21 56 22 72 2 16 -19 31 -20 24 -1 -4 11 -49 38 -57 35 -1 0 -14 -5 -29 -11z"/>
<path d="M3282 773 c-16 -3 -29 -17 -39 -40 -25 -61 5 -123 59 -123 27 0 76
36 64 48 -4 3 -15 -4 -26 -16 -26 -27 -44 -28 -70 -2 -24 24 -27 82 -4 104 20
21 53 20 76 -1 10 -9 18 -11 18 -5 0 11 -40 43 -50 41 -3 -1 -16 -4 -28 -6z"/>
<path d="M3792 764 c-36 -25 -28 -52 23 -74 47 -20 61 -52 29 -64 -25 -9 -33
-7 -54 14 -13 13 -20 15 -20 7 0 -35 59 -50 94 -24 31 23 17 60 -29 75 -45 15
-59 30 -43 49 15 19 55 16 67 -4 10 -17 10 -17 11 0 0 10 -11 22 -26 27 -31
12 -25 13 -52 -6z"/>
<path d="M4270 770 c-56 -14 -67 -119 -16 -152 33 -22 96 6 96 42 0 7 -9 1
-21 -14 -24 -30 -49 -33 -72 -8 -19 21 -22 73 -7 103 15 27 64 25 84 -3 12
-17 16 -18 16 -6 0 29 -40 48 -80 38z"/>
<path d="M650 696 c0 -41 5 -78 10 -81 6 -4 10 23 10 74 0 47 -4 81 -10 81 -6
0 -10 -31 -10 -74z"/>
<path d="M753 763 c27 -4 27 -5 27 -79 0 -48 4 -73 10 -69 6 3 10 37 10 75 0
67 1 69 28 73 15 2 -2 4 -38 4 -36 0 -53 -2 -37 -4z"/>
<path d="M917 694 c-16 -42 -26 -78 -23 -81 3 -3 10 6 15 21 9 21 17 26 46 26
29 0 37 -5 46 -26 5 -15 12 -24 16 -21 9 9 -50 157 -62 157 -5 0 -23 -34 -38
-76z m57 9 c6 -20 4 -23 -18 -23 -30 0 -29 -2 -15 40 12 34 19 30 33 -17z"/>
<path d="M1080 690 l0 -80 50 0 c28 0 50 5 50 10 0 6 -18 10 -40 10 l-40 0 0
70 c0 40 -4 70 -10 70 -6 0 -10 -33 -10 -80z"/>
<path d="M1240 689 c0 -51 4 -78 10 -74 6 3 10 40 10 81 0 43 -4 74 -10 74 -6
0 -10 -34 -10 -81z"/>
<path d="M1372 753 c-24 -48 -54 -134 -49 -140 4 -3 11 6 16 21 9 21 17 26 46
26 29 0 37 -5 46 -26 5 -15 12 -24 15 -21 8 8 -46 157 -57 157 -5 0 -12 -8
-17 -17z m38 -60 c0 -7 -11 -13 -25 -13 -29 0 -28 -2 -14 40 l12 33 13 -24 c7
-13 13 -30 14 -36z"/>
<path d="M1510 689 c0 -100 17 -96 22 5 2 49 -1 71 -9 73 -10 4 -13 -16 -13
-78z"/>
<path d="M1618 703 l-3 -68 -34 53 c-18 29 -36 50 -39 48 -6 -7 70 -126 81
-126 4 0 7 36 7 80 0 44 -2 80 -5 80 -2 0 -5 -30 -7 -67z"/>
<path d="M1880 690 l0 -80 50 0 c28 0 50 5 50 10 0 6 -20 10 -45 10 -43 0 -45
1 -45 29 0 28 3 30 43 34 l42 4 -42 1 c-40 2 -43 4 -43 31 0 28 2 30 48 34
l47 3 -52 2 -53 2 0 -80z"/>
<path d="M2040 767 c0 -5 10 -23 22 -39 23 -33 23 -29 -20 -95 -8 -13 -10 -23
-4 -23 5 0 20 16 32 37 l21 36 25 -37 c34 -49 43 -39 11 11 -22 35 -23 41 -10
58 26 35 34 55 24 55 -6 0 -18 -14 -27 -32 l-16 -32 -29 35 c-16 19 -29 30
-29 26z"/>
<path d="M2402 693 l3 -78 53 -3 c31 -2 52 1 52 7 0 6 -20 11 -45 11 -43 0
-45 1 -45 29 0 28 3 30 43 34 l42 4 -42 1 c-40 2 -43 4 -43 31 0 28 2 30 48
34 46 3 46 3 -11 5 l-58 2 3 -77z"/>
<path d="M2570 690 l0 -80 50 0 c28 0 50 5 50 10 0 6 -18 10 -40 10 l-40 0 0
70 c0 40 -4 70 -10 70 -6 0 -10 -33 -10 -80z"/>
<path d="M2732 693 l-2 -83 45 0 c25 0 45 5 45 10 0 6 -18 10 -40 10 l-39 0
-4 73 -3 72 -2 -82z"/>
<path d="M2880 690 l0 -80 55 0 c30 0 55 5 55 10 0 6 -20 10 -45 10 -43 0 -45
1 -45 29 0 28 3 30 43 34 l42 4 -42 1 c-40 2 -43 4 -43 31 0 28 2 30 48 34 46
3 46 3 -10 5 l-58 2 0 -80z"/>
<path d="M3052 688 l2 -83 5 70 6 70 45 -67 c25 -37 48 -68 53 -68 4 0 6 37 5
83 l-2 82 -5 -70 -6 -69 -44 67 c-24 37 -47 67 -52 67 -5 0 -8 -37 -7 -82z"/>
<path d="M3430 690 l0 -80 55 0 c30 0 55 5 55 10 0 6 -20 10 -45 10 -43 0 -45
1 -45 29 0 28 3 30 43 34 l42 4 -42 1 c-40 2 -43 4 -43 31 0 28 2 30 48 34 46
3 46 3 -10 5 l-58 2 0 -80z"/>
<path d="M3953 690 c0 -47 2 -66 4 -42 2 23 2 61 0 85 -2 23 -4 4 -4 -43z"/>
<path d="M4042 688 l2 -83 5 70 6 69 44 -67 c24 -37 47 -67 52 -67 5 0 9 36 9
80 0 94 -18 108 -22 18 l-3 -63 -40 63 c-22 34 -43 62 -47 62 -5 0 -7 -37 -6
-82z"/>
<path d="M4420 690 l0 -80 50 0 c28 0 50 5 50 10 0 6 -18 10 -40 10 -38 0 -40
2 -40 29 0 28 3 30 43 34 l42 4 -42 1 c-40 2 -43 4 -43 31 0 28 3 30 43 34 40
3 40 4 -10 5 l-53 2 0 -80z"/>
<path d="M4810 760 c0 -6 -10 -15 -22 -20 l-23 -9 22 0 c20 -1 22 -7 26 -63 3
-58 3 -57 5 20 1 45 0 82 -3 82 -3 0 -5 -5 -5 -10z"/>
<path d="M4930 755 c-7 -8 -10 -26 -8 -40 3 -14 1 -28 -3 -31 -5 -3 -9 -16 -9
-30 0 -33 40 -52 75 -36 26 12 35 54 15 67 -7 4 -7 12 0 25 13 24 13 26 -6 44
-20 20 -48 20 -64 1z m58 -29 c-2 -13 -12 -22 -26 -24 -29 -4 -42 26 -18 44
24 17 48 6 44 -20z m6 -59 c9 -15 7 -21 -8 -33 -25 -18 -31 -18 -50 2 -12 12
-13 20 -5 35 13 24 47 22 63 -4z"/>
<path d="M5070 760 c0 -5 16 -10 35 -10 19 0 35 -1 35 -2 0 -2 -11 -25 -25
-52 -25 -49 -33 -92 -16 -82 4 3 11 20 15 38 4 18 17 49 31 69 13 20 21 40 18
43 -10 10 -93 7 -93 -4z"/>
<path d="M5242 758 c-7 -7 -12 -18 -12 -26 0 -9 6 -7 18 8 11 14 23 19 35 15
24 -10 21 -44 -5 -54 l-22 -8 22 -5 c31 -8 40 -38 17 -54 -25 -19 -31 -18 -55
8 -15 16 -20 18 -20 7 0 -35 61 -54 88 -27 15 15 16 54 2 63 -7 4 -7 12 0 25
13 24 13 26 -6 44 -18 19 -45 21 -62 4z"/>
</g>
</svg>
